# xmcd CD database file
#
# Track frame offsets:
#	150
#	19644
#	41444
#	63557
#	81524
#	103840
#	123235
#	142754
#	161314
#	183582
#	205106
#	229040
#	247528
#	264219
#	284235
#	304296
#
# Disc length: 4300 seconds
#
# Revision: 0
# Processed by: cddbd v1.5.1PL0 Copyright (c) Steve Scherf et al.
# Submitted via: CDex 1.51
#
DISCID=d510ca10
DTITLE=El Gran Combo - Salsa Caliente
DYEAR=1900
DGENRE=Salsa
TTITLE0=Me Liberé
TTITLE1=Se Me Fue
TTITLE2=Verano En Nueva York
TTITLE3=Falso Amor
TTITLE4=El Menú
TTITLE5=El Chinito
TTITLE6=La Muerte
TTITLE7=Huellas
TTITLE8=El Carbonerito
TTITLE9=Vagabundo
TTITLE10=Amame
TTITLE11=Azuquita Pa'l Café
TTITLE12=Así Son
TTITLE13=Ojitos Negros
TTITLE14=No Hay Cama
TTITLE15=Con Eso
EXTD=
EXTT0=
EXTT1=
EXTT2=
EXTT3=
EXTT4=
EXTT5=
EXTT6=
EXTT7=
EXTT8=
EXTT9=
EXTT10=
EXTT11=
EXTT12=
EXTT13=
EXTT14=
EXTT15=
PLAYORDER=
